{"title":"Stephen King's Thinner 1996 DVDrip English Klam","uid":6476923,"size":1509667264,"categoryP":"video","categoryS":"movies","magnet":"?xt=urn:btih:b62a662f7dbd7ba4667cbbe65f50d527a326b701&amp;dn=Stephen+King%5C%27s+Thinner+1996+DVDrip+English+Klam&amp;tr=udp%3A%2F%2Ftracker.openbittorrent.com%3A80&amp;tr=udp%3A%2F%2Fopen.demonii.com%3A1337&amp;tr=udp%3A%2F%2Ftracker.coppersurfer.tk%3A6969&amp;tr=udp%3A%2F%2Fexodus.desync.com%3A6969","seeders":2,"leechers":1,"uploader":"Klambake","files":-1,"time":1308341020,"description":"With: Robert John Burke, Joe Mantegna and Kari Wuhrer\n\nEen dikke advocaat rijdt een zigeunervrouw aan, maar wordt, mede door zijn contacten, vrijgesproken van alle blaam. Een zigeuner spreekt uit wraak een vloek over de betrokkenen uit. De advocaat verliest plots kilo's per dag. In het begin een godsgeschenk, maar er komt geen einde aan. De advocaat moet de zigeuner opsporen, om de vloek ongedaan te maken voor het te laat is. Naar een boek van Stephen King.\n\nA fat Lawyer finds himself growing &quot;Thinner&quot; when an old gypsy man places a hex on him. Now the lawyer must call upon his friends in organized crime to help him persuade the gypsy to lift the curse. Time is running out for the desperate lawyer as he draws closer to his own death, and grows ever thinner.\n\n------------------ Dutch Friends ------------------\n\nYou can find my Friends at: http://www.Film-Test.nl \n                    \n------ They got my dutchs subs ---- and more ------\n\nGeneral:\n\nComplete name                    : Thinner.avi\nFormat                           : AVI\nFormat/Info                      : Audio Video Interleave\nFile size                        : 1.41 GiB\nDuration                         : 1h 28mn\nOverall bit rate                 : 2 274 Kbps\n\nVideo:\n\nFormat                           : MPEG-4 Visual\nFormat profile                   : Simple@L3\nFormat settings, BVOP            : No\nFormat settings, QPel            : No\nFormat settings, GMC             : No warppoints\nFormat settings, Matrix          : Default (H.263)\nCodec ID                         : XVID\nCodec ID/Hint                    : XviD\nDuration                         : 1h 28mn\nBit rate                         : 1 815 Kbps\nWidth                            : 652 pixels\nHeight                           : 352 pixels\nDisplay aspect ratio             : 1.852\nFrame rate                       : 25.000 fps\nColor space                      : YUV\nChroma subsampling               : 4:2:0\nBit depth                        : 8 bits\nScan type                        : Progressive\nBits/(Pixel*Frame)               : 0.316\nStream size                      : 1.12 GiB (80%)\nWriting library                  : XviD 1.1.2 (UTC 2006-11-01)\n\nAudio:\n\nFormat                           : AC-3\nFormat/Info                      : Audio Coding 3\nMode extension                   : CM (complete main)\nCodec ID                         : 2000\nDuration                         : 1h 28mn\nBit rate mode                    : Constant\nBit rate                         : 448 Kbps\nChannel(s)                       : 6 channels\nChannel positions                : Front: L C R, Side: L R, LFE\nSampling rate                    : 48.0 KHz\nBit depth                        : 16 bits\nStream size                      : 284 MiB (20%)\nAlignment                        : Aligned on interleaves\nInterleave, duration             : 32 ms (0.80 video frame)\nInterleave, preload duration     : 192 ms\n\n\n\n\n\n\n","torrent":{"xt":"urn:btih:b62a662f7dbd7ba4667cbbe65f50d527a326b701","amp;dn":"Stephen+King%5C%27s+Thinner+1996+DVDrip+English+Klam","amp;tr":["udp%3A%2F%2Ftracker.openbittorrent.com%3A80","udp%3A%2F%2Fopen.demonii.com%3A1337","udp%3A%2F%2Ftracker.coppersurfer.tk%3A6969","udp%3A%2F%2Fexodus.desync.com%3A6969"],"infoHash":"b62a662f7dbd7ba4667cbbe65f50d527a326b701","infoHashBuffer":{"type":"Buffer","data":[182,42,102,47,125,189,123,164,102,124,187,230,95,80,213,39,163,38,183,1]},"announce":[],"urlList":[]}}